<?xml version="1.0" encoding="utf-8"?>
<!-- Generator: Adobe Illustrator 16.0.4, SVG Export Plug-In . SVG Version: 6.00 Build 0)  -->
<!DOCTYPE svg PUBLIC "-//W3C//DTD SVG 1.1//EN" "http://www.w3.org/Graphics/SVG/1.1/DTD/svg11.dtd">
<svg version="1.1" id="Calque_1" xmlns="http://www.w3.org/2000/svg" xmlns:xlink="http://www.w3.org/1999/xlink" x="0px" y="0px"
	 width="595.279px" height="649px" viewBox="0 19.445 595.279 649" enable-background="new 0 19.445 595.279 649"
	 xml:space="preserve">
<g>
	<path d="M297.64,184.436L297.64,184.436L297.64,184.436c-43.043,0-83.339,16.485-114.477,47.623
		c-30.222,30.222-47.623,71.434-47.623,114.477c0,88.834,72.35,161.184,162.1,161.184l0,0l0,0l0,0
		c43.043,0,83.339-16.484,114.477-47.623c30.223-30.222,47.623-71.433,47.623-114.477
		C458.823,257.701,386.474,184.436,297.64,184.436L297.64,184.436z M297.64,198.173c24.728,0,46.707,37.548,55.864,88.834H241.776
		c3.663-17.4,8.242-33.885,13.737-47.622C267.418,213.742,282.072,199.089,297.64,198.173L297.64,198.173z M358.999,346.535
		c0,15.569-0.915,31.138-2.747,44.875H239.944c-1.831-14.653-2.747-29.306-2.747-44.875s0.916-31.138,2.747-44.875h116.309
		C358.084,315.397,358.999,330.966,358.999,346.535z M297.64,494.897L297.64,494.897v0.916V494.897
		c-24.727,0-46.706-37.549-55.864-88.834h111.729c-3.663,17.401-8.242,33.885-13.736,47.623
		C327.862,479.328,313.209,494.897,297.64,494.897z M193.238,242.132c19.231-19.232,43.043-32.969,69.602-39.38
		c-7.326,8.242-13.737,18.316-19.232,31.138c-6.41,15.569-11.905,33.885-15.568,53.117H162.1
		C169.426,270.522,179.5,254.954,193.238,242.132z M156.605,301.66h68.686c-1.831,14.653-2.747,29.306-2.747,44.875
		s0.916,31.138,2.747,44.875h-68.686c-4.579-14.653-7.327-29.306-7.327-44.875S152.026,316.313,156.605,301.66z M162.1,405.147
		h65.938c6.41,36.633,19.232,66.854,34.801,85.171C217.964,479.328,180.415,447.274,162.1,405.147z M402.043,450.938
		c-19.232,19.231-43.959,32.969-69.603,39.38c7.327-8.242,13.737-18.316,19.232-31.138c6.411-15.569,11.905-33.886,15.568-53.118
		h65.939C425.854,422.548,415.781,438.116,402.043,450.938z M438.676,391.41H369.99c1.831-14.653,2.747-29.306,2.747-44.875
		s-0.916-31.138-2.747-44.875h68.687c4.578,14.653,7.326,29.306,7.326,44.875S443.254,376.757,438.676,391.41z M433.181,287.923
		h-65.939c-6.41-36.633-19.231-66.854-34.801-85.171C377.316,213.742,414.865,245.795,433.181,287.923z"/>
	<path d="M113.561,167.035c40.296-41.212,93.413-67.771,150.194-75.097c4.579,14.653,17.4,26.559,33.885,26.559
		c19.232,0,35.717-15.569,35.717-35.717s-15.569-35.717-35.717-35.717c-18.316,0-32.969,13.737-34.801,31.138
		c-60.443,7.326-117.225,35.717-159.352,78.76L113.561,167.035z M297.64,60.8c11.905,0,21.979,10.074,21.979,21.98
		c0,11.905-10.074,21.979-21.979,21.979S275.66,94.686,275.66,82.78C275.66,69.958,285.735,60.8,297.64,60.8z"/>
	<path d="M37.548,423.464l12.821-3.664c-7.326-23.811-10.073-47.623-10.073-72.35c0-33.885,6.41-67.77,19.231-98.908
		c2.748,0.916,6.411,0.916,9.158,0.916c12.822,0,24.728-6.411,31.138-17.4c4.579-8.242,6.411-17.4,3.664-26.559
		c-2.748-9.158-8.243-16.485-16.485-21.979c-5.494-2.748-11.905-4.579-18.316-4.579c-12.821,0-24.727,6.411-31.138,17.4
		c-3.663,7.327-5.494,17.4-2.747,26.559c1.832,7.327,6.411,13.737,12.821,18.316c-13.737,32.969-21.063,68.686-21.063,105.319
		C26.559,372.178,30.222,398.736,37.548,423.464z M50.369,202.752c3.664-6.411,10.99-10.99,19.232-10.99
		c3.663,0,7.327,0.916,10.99,2.748c5.495,2.747,8.242,7.326,10.073,13.737c1.832,5.495,0.916,11.905-1.831,16.484
		c-6.411,10.074-20.148,13.737-30.222,7.327c-5.495-2.748-8.243-7.327-10.074-13.737C46.706,213.742,47.622,207.331,50.369,202.752z
		"/>
	<path d="M92.497,502.224c10.99-10.989,13.737-28.391,5.495-43.043c-6.411-10.99-18.316-18.316-31.138-18.316
		c-6.411,0-11.906,1.831-17.4,4.579c-8.242,4.579-14.653,11.905-16.485,21.063c-2.747,9.158-0.915,18.316,3.664,26.559
		c6.41,10.99,18.315,18.316,31.138,18.316c4.579,0,9.158-0.916,13.737-2.747c35.717,46.706,85.171,81.507,141.951,97.076
		l3.663-12.821C174.005,579.152,126.383,546.183,92.497,502.224z M48.538,487.57c-2.747-5.494-3.663-10.989-1.832-16.484
		c1.832-5.495,5.495-10.074,10.074-12.821c3.663-1.832,7.326-2.747,10.99-2.747c8.242,0,15.568,4.579,19.231,10.989
		c5.495,10.074,1.832,23.812-8.242,30.222C68.686,502.224,54.948,497.645,48.538,487.57z"/>
	<path d="M479.887,527.866c-40.296,40.296-92.497,65.939-148.362,73.266c-1.831-5.495-4.579-10.99-9.157-15.569
		c-6.411-6.41-15.569-10.989-25.644-10.989c-19.231,0-35.717,15.568-35.717,34.801c0,9.158,3.664,18.316,10.074,25.643
		c6.411,6.411,15.569,10.99,24.728,10.99l0,0c18.315,0,32.969-13.737,34.801-31.138c59.527-7.326,114.477-34.801,157.52-77.845
		L479.887,527.866z M297.64,632.27v6.411V632.27c-6.41,0-11.905-2.747-15.568-6.41c-3.663-4.58-6.411-10.074-6.411-15.569
		c0-11.905,10.074-21.979,21.979-21.979c5.495,0,10.99,2.747,15.569,6.41c3.663,4.579,6.41,10.074,6.41,15.569
		C319.619,623.111,309.545,632.27,297.64,632.27z"/>
	<path d="M503.698,192.678c-4.579,4.579-7.326,9.158-9.158,15.569c-2.747,9.158-1.832,18.316,2.747,27.474
		c6.411,10.99,18.316,18.316,31.138,18.316c6.411,0,11.906-1.832,17.401-4.579c8.242-4.579,14.652-11.906,17.4-21.064
		c2.747-9.158,1.831-18.316-2.748-27.474c-6.41-10.99-18.316-18.316-31.138-18.316c-4.579,0-9.158,0.916-12.821,2.748
		c-37.548-50.37-91.581-87.002-152.025-101.656l-3.663,13.737C417.612,111.17,468.898,145.056,503.698,192.678z M547.657,207.331
		c2.747,5.495,3.663,10.99,1.832,16.484c-1.832,5.495-5.495,10.074-10.074,12.822c-10.074,5.495-23.812,1.832-29.306-8.243
		c-2.748-5.495-3.664-10.99-1.832-16.484c1.832-5.495,5.495-10.074,10.074-12.821c3.663-1.832,7.326-2.748,10.989-2.748
		C536.668,196.341,543.994,200.92,547.657,207.331z"/>
	<path d="M546.741,453.686c14.653-33.885,21.979-70.518,21.979-107.15c0-22.896-2.747-46.707-9.158-68.687l-13.736,3.664
		c5.494,21.063,8.242,43.043,8.242,65.023c0,34.801-7.327,68.686-21.064,100.739c-2.747-0.915-6.41-0.915-10.073-0.915
		c-12.821,0-23.812,6.41-30.222,17.4c-10.074,16.484-4.579,38.464,11.905,48.538c5.495,3.663,11.905,4.579,18.316,4.579
		c12.821,0,23.811-6.411,30.222-17.4c4.579-8.242,6.411-17.4,3.663-26.559C557.732,465.591,553.153,459.181,546.741,453.686z
		 M543.078,493.065c-3.663,6.411-10.989,10.99-19.232,10.99c-3.663,0-7.326-0.916-10.989-2.748
		c-10.074-6.41-13.737-19.231-7.326-30.222c3.663-6.41,10.989-10.989,19.231-10.989c3.663,0,7.327,0.915,10.99,2.747
		c4.579,2.747,8.242,7.326,10.074,13.737C547.657,482.076,546.741,487.57,543.078,493.065z"/>
</g>
<text transform="matrix(1 0 0 1 2.445579e-04 781.5469)" font-family="'HelveticaNeue-Bold'" font-size="45.7908">Created by Creative Stall</text>
<text transform="matrix(1 0 0 1 2.445579e-04 827.3359)" font-family="'HelveticaNeue-Bold'" font-size="45.7908">from the Noun Project</text>
</svg>
