<svg width="240" height="240" viewBox="0 0 240 240" fill="none" xmlns="http://www.w3.org/2000/svg">
<circle cx="120" cy="120" r="112.5" stroke="#979797" stroke-width="15"/>
<path d="M32.56 112.56V117.36H47.28V112.56H32.56ZM46.768 98.224L49.584 94C49.2853 93.5733 48.8587 93.168 48.304 92.784C47.792 92.4 47.1733 92.08 46.448 91.824C45.7227 91.568 44.8907 91.44 43.952 91.44C42.16 91.44 40.624 91.824 39.344 92.592C38.1067 93.3173 37.1467 94.4267 36.464 95.92C35.7813 97.4133 35.44 99.3333 35.44 101.68V142H40.56V102.32C40.56 100.912 40.688 99.7813 40.944 98.928C41.2 98.0747 41.5413 97.4773 41.968 97.136C42.4373 96.752 42.992 96.56 43.632 96.56C44.144 96.56 44.6773 96.6667 45.232 96.88C45.8293 97.0507 46.3413 97.4987 46.768 98.224ZM50.5525 127.28C50.5525 130.224 51.2138 132.869 52.5365 135.216C53.9018 137.52 55.7365 139.333 58.0405 140.656C60.3445 141.979 62.9258 142.64 65.7845 142.64C68.6858 142.64 71.2672 141.979 73.5285 140.656C75.8325 139.333 77.6458 137.52 78.9685 135.216C80.3338 132.869 81.0165 130.224 81.0165 127.28C81.0165 124.293 80.3338 121.648 78.9685 119.344C77.6458 117.04 75.8325 115.227 73.5285 113.904C71.2672 112.581 68.6858 111.92 65.7845 111.92C62.9258 111.92 60.3445 112.581 58.0405 113.904C55.7365 115.227 53.9018 117.04 52.5365 119.344C51.2138 121.648 50.5525 124.293 50.5525 127.28ZM55.7365 127.28C55.7365 125.232 56.1632 123.419 57.0165 121.84C57.9125 120.219 59.1072 118.96 60.6005 118.064C62.1365 117.168 63.8645 116.72 65.7845 116.72C67.7045 116.72 69.4112 117.168 70.9045 118.064C72.4405 118.96 73.6352 120.219 74.4885 121.84C75.3845 123.419 75.8325 125.232 75.8325 127.28C75.8325 129.328 75.3845 131.141 74.4885 132.72C73.6352 134.299 72.4405 135.557 70.9045 136.496C69.4112 137.392 67.7045 137.84 65.7845 137.84C63.8645 137.84 62.1365 137.392 60.6005 136.496C59.1072 135.557 57.9125 134.299 57.0165 132.72C56.1632 131.141 55.7365 129.328 55.7365 127.28ZM90.354 127.28C90.354 125.232 90.7807 123.419 91.634 121.84C92.53 120.219 93.7247 118.96 95.218 118.064C96.754 117.168 98.482 116.72 100.402 116.72C101.981 116.72 103.453 116.976 104.818 117.488C106.226 117.957 107.442 118.597 108.466 119.408C109.49 120.219 110.215 121.115 110.642 122.096V115.696C109.618 114.501 108.146 113.584 106.226 112.944C104.349 112.261 102.407 111.92 100.402 111.92C97.5433 111.92 94.962 112.581 92.658 113.904C90.354 115.227 88.5193 117.04 87.154 119.344C85.8313 121.648 85.17 124.293 85.17 127.28C85.17 130.224 85.8313 132.869 87.154 135.216C88.5193 137.52 90.354 139.333 92.658 140.656C94.962 141.979 97.5433 142.64 100.402 142.64C102.407 142.64 104.349 142.32 106.226 141.68C108.146 140.997 109.618 140.059 110.642 138.864V132.464C110.215 133.403 109.49 134.299 108.466 135.152C107.442 135.963 106.226 136.624 104.818 137.136C103.453 137.605 101.981 137.84 100.402 137.84C98.482 137.84 96.754 137.392 95.218 136.496C93.7247 135.557 92.53 134.299 91.634 132.72C90.7807 131.141 90.354 129.328 90.354 127.28ZM123.733 130.48V112.56H118.613V131.12C118.613 134.619 119.53 137.413 121.365 139.504C123.199 141.595 125.653 142.64 128.725 142.64C130.687 142.64 132.394 142.213 133.845 141.36C135.295 140.464 136.511 139.141 137.493 137.392V142H142.613V112.56H137.493V130.48C137.493 131.931 137.173 133.211 136.533 134.32C135.935 135.429 135.061 136.304 133.909 136.944C132.799 137.541 131.498 137.84 130.005 137.84C127.957 137.84 126.399 137.2 125.333 135.92C124.266 134.64 123.733 132.827 123.733 130.48ZM153.454 132.976L149.422 135.472C149.976 136.624 150.787 137.755 151.854 138.864C152.963 139.973 154.307 140.891 155.885 141.616C157.464 142.299 159.235 142.64 161.198 142.64C164.227 142.64 166.659 141.787 168.494 140.08C170.371 138.373 171.31 136.24 171.31 133.68C171.31 131.931 170.883 130.501 170.03 129.392C169.219 128.283 168.11 127.344 166.702 126.576C165.294 125.765 163.736 125.019 162.03 124.336C161.006 123.909 160.024 123.461 159.086 122.992C158.147 122.523 157.379 121.989 156.782 121.392C156.184 120.795 155.885 120.112 155.885 119.344C155.885 118.363 156.27 117.637 157.038 117.168C157.806 116.699 158.723 116.464 159.79 116.464C161.326 116.464 162.691 116.827 163.885 117.552C165.123 118.277 166.147 119.195 166.958 120.304L171.054 117.68C170.456 116.571 169.624 115.589 168.558 114.736C167.491 113.883 166.254 113.2 164.846 112.688C163.48 112.176 162.008 111.92 160.43 111.92C158.851 111.92 157.315 112.197 155.822 112.752C154.371 113.307 153.176 114.16 152.238 115.312C151.342 116.464 150.894 117.915 150.894 119.664C150.894 121.371 151.32 122.8 152.174 123.952C153.07 125.061 154.158 125.979 155.438 126.704C156.76 127.387 158.062 127.984 159.342 128.496C160.494 128.923 161.582 129.392 162.606 129.904C163.63 130.373 164.462 130.971 165.102 131.696C165.784 132.379 166.126 133.232 166.126 134.256C166.126 135.408 165.699 136.325 164.846 137.008C164.035 137.648 162.904 137.968 161.454 137.968C160.259 137.968 159.15 137.755 158.126 137.328C157.144 136.859 156.27 136.24 155.502 135.472C154.734 134.704 154.051 133.872 153.454 132.976ZM200.13 92.08V142H205.25V92.08H200.13ZM175.49 127.28C175.49 130.437 176.151 133.168 177.474 135.472C178.797 137.776 180.567 139.547 182.786 140.784C185.005 142.021 187.437 142.64 190.082 142.64C192.557 142.64 194.711 142.021 196.546 140.784C198.381 139.547 199.81 137.776 200.834 135.472C201.901 133.168 202.434 130.437 202.434 127.28C202.434 124.08 201.901 121.349 200.834 119.088C199.81 116.784 198.381 115.013 196.546 113.776C194.711 112.539 192.557 111.92 190.082 111.92C187.437 111.92 185.005 112.539 182.786 113.776C180.567 115.013 178.797 116.784 177.474 119.088C176.151 121.349 175.49 124.08 175.49 127.28ZM180.674 127.28C180.674 125.019 181.122 123.099 182.018 121.52C182.957 119.941 184.194 118.747 185.73 117.936C187.266 117.125 188.93 116.72 190.722 116.72C192.215 116.72 193.687 117.125 195.138 117.936C196.589 118.747 197.783 119.941 198.722 121.52C199.661 123.099 200.13 125.019 200.13 127.28C200.13 129.541 199.661 131.461 198.722 133.04C197.783 134.619 196.589 135.813 195.138 136.624C193.687 137.435 192.215 137.84 190.722 137.84C188.93 137.84 187.266 137.435 185.73 136.624C184.194 135.813 182.957 134.619 182.018 133.04C181.122 131.461 180.674 129.541 180.674 127.28Z" fill="#979797"/>
</svg>
